<?xml version="1.0" encoding="UTF-8" standalone="no"?>
<svg width="220px" height="223px" viewBox="0 0 220 223" version="1.1" xmlns="http://www.w3.org/2000/svg" xmlns:xlink="http://www.w3.org/1999/xlink">
    <defs></defs>
    <g id="Exhibition-Pages" stroke="none" stroke-width="1" fill="none" fill-rule="evenodd">
        <g id="Group-2" fill="#1D1D1B">
            <polygon id="Path" class="line_1" points="104.470915 223 115.525861 223 115.525861 138.972977 104.470915 138.972977"></polygon>
            <polygon id="Path" class="astrix_line_1" points="133.151988 126.971535 125.261562 134.978139 183.942955 194.189768 191.574542 186.454"></polygon>
            <polygon id="Path" class="astrix_line_1" points="28.4222341 186.454 36.0454714 194.189768 94.735214 134.978139 86.836438 126.971535"></polygon>
            <polygon id="Path" class="astrix_line_1" points="137.101376 117.10293 219.996776 117.10293 219.996776 105.89707 137.101376 105.89707"></polygon>
            <polygon id="Path" class="astrix_line_1" points="0 117.10293 82.8953997 117.10293 82.8953997 105.89707 0 105.89707"></polygon>
            <polygon id="Path" class="astrix_line_1" points="125.261562 88.0303249 133.151988 96.0284652 191.574542 36.5459997 183.942955 28.8102323"></polygon>
            <polygon id="Path" class="astrix_line_1" points="36.0454714 28.8102323 28.4222341 36.5459997 86.836438 96.0284652 94.735214 88.0303249"></polygon>
            <polygon id="Path" class="astrix_line_1" points="104.470915 84.0270229 115.525861 84.0270229 115.525861 0 104.470915 0"></polygon>
        </g>
    </g>
</svg>