<?xml version="1.0" encoding="utf-8"?>
<!-- Generator: Adobe Illustrator 16.0.0, SVG Export Plug-In . SVG Version: 6.00 Build 0)  -->
<!DOCTYPE svg PUBLIC "-//W3C//DTD SVG 1.1//EN" "http://www.w3.org/Graphics/SVG/1.1/DTD/svg11.dtd">
<svg version="1.1" id="Layer_1" xmlns="http://www.w3.org/2000/svg" xmlns:xlink="http://www.w3.org/1999/xlink" x="0px" y="0px"
	 width="539.68px" height="568px" viewBox="0 0 539.68 568" enable-background="new 0 0 539.68 568" xml:space="preserve">
<g>
	<defs>
		<rect id="SVGID_1_" x="113.406" y="78.744" width="306.934" height="394.7"/>
	</defs>
	<clipPath id="SVGID_2_">
		<use xlink:href="#SVGID_1_"  overflow="visible"/>
	</clipPath>
	
		<path clip-path="url(#SVGID_2_)" fill="none" stroke="#EB008B" stroke-linecap="round" stroke-linejoin="round" stroke-miterlimit="10" d="
		M197.768,416.04c0.376-1.79,0.238-1.857-1.622-1.652c-0.969,0.108-1.75,0.948-2.791,0.623 M187.764,363.5
		c-0.164,0.624,0.285,1.084,0.453,1.615c0.456,1.428,0.48,1.416-1.042,1.481c-0.148,0.006-0.294,0.091-0.441,0.14 M183.792,364.236
		c0.13,0.555,0.669,0.81,1.047,0.992c1.582,0.775,1.946,2.289,2.521,3.659c-0.56,1.358-1.885-0.065-2.538,0.793 M230.427,367.913
		c-0.393-0.751-1.186-1.068-1.767-1.614c-0.983-0.924-2.015-0.99-3.088-0.15c-1.073,0.841-2.538,1.174-3.236,2.503 M204.388,406.622
		c0.21,2.565-1.274,4.579-2.22,6.765c-0.343,0.794-0.805,1.583-1.954,0.672c-0.469,2.083-2.182,2.201-3.624,2.718 M203.946,407.948
		c-1.147,0.419-1.31,1.726-2.304,2.423c-1.976,1.393-4.242,1.96-6.396,2.824c-0.877,0.353-1.679,0.612-2.029,1.524
		c-0.307,0.8-1.11,0.547-1.629,0.879 M227.19,406.473c-2.914,0.828-5.742,0.416-8.534-0.581c-0.277-0.1-0.609-0.2-0.877-0.139
		c-2.982,0.674-5.557-0.216-8.129-1.722c-1.342-0.785-2.389-1.867-3.655-2.693c-0.41-0.267-0.885-0.781-1.455-0.304
		c-1.009,0.851-1.809,0.43-2.66-0.291c-2.26-1.914-5.004-1.45-7.643-1.48 M166.727,353.05c0.111,0.744,0.635,1.288,1.193,1.589
		c1.667,0.894,2.912,2.372,4.557,3.245c2.679,1.418,4.347,3.724,5.877,6.202c1.342,2.169,3.356,3.621,5.433,5.015
		c1.296,0.871,2.399,2.047,2.306,3.667c-0.085,1.493,0.439,2.767,0.769,4.13c0.312,1.294,0.641,2.565,0.213,3.981
		c-0.5,1.656-1.119,2.938-2.971,3.429c-0.598,0.159-1.231,0.647-1.813,1.078c-1.22,0.903-2.733,1.132-4.23,0.901
		c-1.037-0.158-1.842-0.789-2.038-1.894c-0.065-0.362-0.295-0.501-0.467-0.73 M217.776,405.59c-0.901-0.881-1.608-2.008-3.256-1.536
		c-0.496,0.143-1.3-0.352-1.753-0.96c-0.514-0.686-1.254-1.01-2.037-1.363c-2.242-1.012-4.238-2.47-6.164-3.978
		c-0.636-0.499-1.272-0.999-1.956-1.414c-0.424-0.257-0.968-0.313-1.458-0.021c-1.695,1.021-3.007,0.126-4.259-0.892
		c-0.67-0.545-1.143-1.516-2.207-1.146c-0.798,0.275-1.614,0.608-2.082,1.44c-0.162,0.289-0.492,0.482-0.792,0.766
		c1.092,0.785,2.43,1.382,2.13,3.07 M242.343,439.882c1.34-0.083,2.125-1.146,2.904-1.951c2.679-2.765,5.723-5.168,8.137-8.197
		c0.562-0.706,1.277-0.932,2.208-0.621c0.59,0.195,1.265,0.135,2.081,0.204c-0.1-1.243-0.513-2.24-1.393-3.004
		c-1.224,0.332-2.191,1.044-3.5,0.816c-1.01-0.177-1.844,0.342-2.074,1.564c-0.17,0.894-0.572,1.786-1.313,2.344
		c-2.678,2.009-4.481,4.82-6.383,7.431c-3.897,5.347-9.407,8.495-14.798,11.85c-5.392,3.355-11.1,6.131-16.747,9.021
		c-3.537,1.813-7.057,3.62-10.904,4.672c-3.553,0.973-6.821,2.775-10.441,3.549c-1.138,0.244-2.243,0.667-3.389,0.856
		c-2.23,0.366-4.199,1.078-5.22,3.255c-0.171,0-0.305,0.045-0.362-0.004c-2.542-2.146-5.307-0.327-7.951-0.372
		c-2.439-0.043-4.854,0.614-7.359,0.449c-1.543-0.1-3.134,0.509-4.702,0.814c-0.935,0.181-1.864,0.391-2.796,0.586 M219.247,369.093
		c-0.246-0.146-0.501-0.439-0.734-0.421c-2.939,0.228-4.306-1.809-5.059-4.024c-0.576-1.697-1.651-2.174-3.038-2.452
		c-1.749-0.352-3.443-0.755-5.322-0.107c-1.198,0.41-2.704,0.062-3.941-0.649c-1.649-0.944-3.305-0.843-4.844,0.165
		c-1.783,1.166-3.935,1.416-5.767,2.451c-0.313,0.18-0.915,0.045-1.298-0.132c-2.084-0.963-3.728-2.458-5.168-4.24
		c-3.429-4.25-6.823-8.539-11.17-11.929c-3.298-2.574-7.014-4.365-10.881-5.901c-2.988-1.188-5.886-2.6-8.979-3.52 M209.39,459.898
		c-1.522-0.344-2.88,0.387-4.257,0.77c-3.372,0.936-6.682,2.319-10.165,2.541c-4.487,0.287-8.331,2.104-12.219,4.021
		c-0.933,0.462-1.959,0.828-3.077,0.777c-1.256-0.062-2.506-0.1-3.684,0.563c-2.731,1.54-5.959,1.266-8.831,2.34
		c-0.458,0.171-0.967,0.112-1.02,0.761 M232.487,368.503c-2.704-0.843-5.276,0.535-7.944,0.543
		c-0.542,0.004-1.186,0.053-1.599-0.143c-1.433-0.678-2.542-0.071-3.701,0.623c-0.96,0.575-1.96,1.082-2.938,1.628
		c-0.949,0.528-1.438,1.161-0.604,2.217c0.321,0.407,0.344,0.983,0.571,1.476c0.569,1.233-0.01,2.775-1.141,3.669
		c-2.708,2.145-5.877,3.7-8.115,6.455c-0.646,0.796-1.634,1.006-2.626,0.599c-3.096-1.27-6.188-0.653-9.268,0.019
		c-1.41,0.309-2.388,0.057-3.239-1.042c-0.76-0.982-1.42-1.097-2.346-0.287c-1.532,1.339-2.982,2.771-5.006,3.388
		c-0.776,0.236-1.569,0.58-2.351,0.403c-1.472-0.332-2.592,0.12-3.514,1.208c-1.016-0.143-1.93-0.616-2.966-0.608
		c-0.787,0.002-1.25-0.37-1.198-1.308c0.072-1.321,0.187-2.621,0.771-3.819c0.223-0.458,0.121-0.885,0.131-1.333
		c0.054-2.352,0.3-4.659,1.473-6.769"/>
	
		<path clip-path="url(#SVGID_2_)" fill="none" stroke="#F16522" stroke-linecap="round" stroke-linejoin="round" stroke-miterlimit="10" d="
		M360.075,149.936c-1.436,1.49-2.291,3.438-3.908,4.682c0.22,1.062,0.945,1.552,1.473,2.191c0.241,0.291,0.442,0.475,0.821,0.392
		c2.151-0.472,4.35-0.802,6.429-1.489c0.712-0.237,2.1-0.469,1.847-1.943c-0.228-1.326-0.854-2.264-2.224-2.627
		c-1.419-0.377-2.825-0.801-4.236-1.205 M373.789,153.165c-1.594,0.699-2.175,1.964-2.016,3.632c0.33,3.431,0.705,6.857,0.98,10.292
		c0.062,0.782,0.463,1.109,0.947,1.411c0.154,0,0.233,0.023,0.289-0.003c3.882-1.897,4.11-5.192,3.445-8.878
		c-0.238-1.326-0.208-2.7-0.437-4.029c-0.42-2.432-0.463-2.424-3.008-2.424 M384.478,209.057c-1.935,1.076-0.508,2.349,0.058,3.191
		c1.509,2.248,3.82,3.5,6.393,4.286c0.663,0.201,1.041-0.433,1.655-0.443c-0.145-0.984-0.313-1.989-0.437-2.999
		c-0.418-3.385-1.348-4.287-4.639-3.976c-0.977,0.091-1.887-0.084-2.828-0.06 M371.369,145.094c-0.74,1.413-1.671,2.764-2.153,4.258
		c-0.347,1.068,0.046,2.213,1.127,3.03c1.141,0.861,1.521-0.196,2.251-0.601c1.404-0.777,3.003-1.654,2.109-3.41
		c-0.673-1.317-1.474-2.886-3.134-3.479 M379.637,171.324c-0.716-0.905,0.844-2.267-0.973-2.996c-1.793,0.901-3.458,2.5-4.614,4.444
		c-0.874,1.469,0.108,3.107,0.59,4.591c0.212,0.65,0.948,0.558,1.574,0.226c2.445-1.303,3.438-3.355,3.223-6.063 M359.469,191.906
		c2.263-1.138,2.672-2.556,0.984-4.007c-1.287-1.103-2.447-2.298-3.379-3.677c-1.006-1.492-2.038-0.945-3.262-0.412
		c-1.387,0.604-0.805,1.567-0.583,2.442c0.542,2.127,1.319,4.157,3.431,5.226c0.783,0.397,1.686,0.782,2.607,0.226 M365.722,218.339
		c1.345,1.121,2.3,2.218,1.49,4.269c-0.493,1.245,1.098,1.157,1.729,1.107c0.897-0.068,1.755-0.176,2.755,0.134
		c1.104-1.138,1.162-2.833,2.014-4.149c0.72-1.114-1.123-3.338-2.542-3.376c-2.031-0.054-4.028,0.019-5.446,1.813 M355.639,145.094
		c2.004-0.381,3.6-1.693,5.463-2.372c0.522-0.19,0.405-0.424,0.37-0.654c-0.317-2.099-0.504-4.212-1.137-6.275
		c-0.308-1.004-0.84-1.377-1.674-1.586c-0.989-0.249-1.375,0.688-1.554,1.221c-0.461,1.366-1.477,2.358-2.142,3.577
		c-1.229,2.244-1.273,3.993,0.471,6.089 M366.932,146.91c2.066-1.49,2.506-3.855,3.201-6.062c0.186-0.585,0.04-1.312-0.39-1.795
		c-1.571-1.766-3.329-3.294-5.837-4.294v11.856c0.884,0.631,1.938-0.029,2.824,0.498 M361.486,209.258
		c0.929,2.19,1.43,4.58,3.078,6.625c1.811-0.869,3.592-1.751,5.396-2.58c0.955-0.439,0.901-1.272,0.78-2.023
		c-0.336-2.096-0.775-4.175-1.22-6.492c-2.729,0.197-5.12,1.285-7.438,2.641c-0.708,0.415-0.113,1.195-0.597,1.628 M356.444,180.607
		c0.684-1.713,0.039-3.41-0.275-5.031c-0.287-1.481-0.41-2.982-0.713-4.458c-0.385-1.86-1.097-2.328-3.048-1.82
		c-0.457,0.12-0.965,0.068-1.405,0.222c-2.137,0.746-2.679,1.459-2.4,3.617c0.337,2.6,0.667,5.296,3.609,6.45
		c1.294,0.507,2.779,0.308,4.029,1.02 M382.864,207.644c2.311-0.588,4.661-1.039,7.014-2.191c-0.9-2.1-1.812-4.305-2.789-6.481
		c-0.515-1.15-1.251-1.154-2.434-0.667c-1.857,0.766-3.663,1.9-5.826,1.669c-0.391,2.179,0.581,4.108,1.276,6.033
		c0.338,0.938,1.333,1.669,2.557,1.637 M368.948,186.862c0.29-1.795,0.839-3.503,1.82-5.041c1.173-1.838,1.472-3.775,0.765-5.917
		c-1.543-0.645-2.612,0.46-3.557,1.313c-1.232,1.113-2.433,1.594-4.079,1.204c-0.854-0.202-1.858-0.067-2.388,0.788
		c-0.469,0.758-0.052,1.444,0.335,2.227c1.134,2.292,2.189,4.642,3.018,7.059c0.434,1.263,1.26,2.083,2.054,3.022
		c0.496,0.588,1.131,0.489,1.617,0.346c0.69-0.202,0.742-0.957,0.6-1.566c-0.25-1.069-0.42-2.136-0.387-3.233 M368.143,157.2
		c-0.403,0.134-0.873,0.179-1.2,0.418c-2.3,1.688-4.838,2.319-7.677,2.028c-1.476-0.151-1.946,0.974-2.221,2.195
		c-0.49,2.187-0.217,4.325,0.85,6.233c0.949,1.7,1.365,3.341,0.999,5.274c-0.334,1.761,0.682,2.682,2.587,2.385
		c1.01-0.158,2.031-0.251,3.021-0.426c1.49-0.261,3.237-0.463,3.087-2.776c-0.028-0.447,0.518-1.107,0.974-1.381
		c2.687-1.613,2.54-4.041,1.744-6.468c-0.486-1.482-0.608-2.97-0.707-4.459c-0.082-1.212-0.345-2.219-1.256-3.024 M379.637,224.593
		c-1.465-0.236-2.421-1.97-4.024-1.576c-1.726,0.423-2.47,2.218-3.829,3.207c-0.842,0.612-1.565,1.384-2.423,2.154
		c0.65,1.684,2.233,2.292,3.443,2.573c3.022,0.703,6.151,1.068,9.257,1.264c3.141,0.199,5.632-0.912,6.891-4.177
		c1.004-2.6,2.612-4.874,4.862-6.593c-1.678-2.308-4.587-3.407-7.115-2.694c-0.98,0.277-1.701,0.668-1.261,2.024
		c0.311,0.962,0.052,2.059-1.362,1.985c-1.682-0.087-2.612,1.647-4.236,1.631"/>
	
		<path clip-path="url(#SVGID_2_)" fill="none" stroke="#FFDD15" stroke-linecap="round" stroke-linejoin="round" stroke-miterlimit="10" d="
		M405.644,335.894c-1.045-2.507-0.88-5.296-2.143-7.825c-1.418-2.838-3.608-4.858-6.243-5.972c-4.524-1.908-7.486-5.091-9.709-9.268
		c-0.942-1.767-2.121-3.404-3.328-5.314c-2.55,1.403-3.592,3.807-3.774,6.145c-0.322,4.152-2.468,6.612-5.945,8.338
		c-5.536,2.751-9.36,7.025-10.796,13.074c-0.997,4.202-1.538,8.513-2.271,12.777c-0.207,1.203-0.375,2.407-0.596,3.844
		c2.164,1.711,6.228-1.106,7.381,2.845c1.038,0.01,1.517-0.661,2.108-1.129c1.884-1.492,3.877-1.441,5.83-0.261
		c2.708,1.634,4.817,1.442,5.518-2.806c0.579-3.512,0.429-7.124,2.476-10.33c0.424-0.661,0.284-1.992-0.18-3.014
		c-1.147-2.522-0.716-5.033,0.266-7.497c0.457-1.144,1.132-2.11,2.498-2.216c1.57-0.124,1.894,1.294,2.456,2.242
		c0.412,0.695,0.391,1.646,0.561,2.474c1.139,0.755,2.221,0.169,3.074-0.323c1.85-1.068,3.204-0.558,4.481,0.875
		c0.435,0.488,1.152,0.851,1.346,1.408c1.027,2.958,3.506,3.792,6.057,4.482c1.013-0.552,0.297-1.665,0.934-2.271"/>
	
		<path clip-path="url(#SVGID_2_)" fill="none" stroke="#00A14B" stroke-linecap="round" stroke-linejoin="round" stroke-miterlimit="10" d="
		M373.324,389.83c0.749,1.011,1.822,1.292,2.998,1.281c5.059-0.042,9.908,1.233,14.766,2.405c0.446,0.105,0.871,0.137,1.296,0.156
		c2.619,0.114,2.994-0.38,2.356-2.986c-0.823-3.371-1.979-6.603-4.072-9.421c-2.452-3.304-5.599-5.559-9.845-5.292
		c-3.043,0.189-5.319,1.125-5.829,5.284c-0.344,2.812-1.1,5.573-1.67,8.358 M373.324,396.253c4.74,0.234,9.361,1.433,14.131,1.596
		c2.118,0.071,4.285,0.348,6.429,0.547 M374.609,396.685c0.907,3.91,3.379,5.985,7.281,5.983c3.455-0.006,6.916-0.062,9.86-2.331
		c0.577-0.443,1.316-0.686,1.489-1.512 M403.521,405.248c-1.633,0.599-3.266,1.198-4.927,1.809c0,3.774,0.459,4.23,4.282,3.966
		c2.735-0.191,5.43,0.452,8.138,0.387c2.503-0.059,5.007-0.462,7.493-0.832c1.23-0.186,1.726-1.221,1.467-2.321
		c-0.403-1.72-0.947-3.396-1.32-5.134c-0.397-1.85-2.125-2.58-4.412-1.893c-2.09,0.625-4.159,0.353-6.225,0.34
		c-2.753-0.021-4.268-1.809-5.153-4.462c3.193-0.637,6.421-1.283,9.651-1.92c0.782-0.157,1.564-0.32,2.355-0.426
		c1.456-0.195,1.637-1.176,1.491-2.362c-0.018-0.148-0.181-0.28-0.2-0.429c-0.695-5.158-0.721-5.314-5.777-4.43
		c-2.428,0.423-4.884,0.519-7.466,1.084c-1.089-2.094-1.227-4.139-0.782-6.522c0.463-2.482,1.915-3.443,3.94-4.298
		c2.12-0.895,4.147-2.002,6.02-3.381c0.908-0.67,1.535-1.376,1.736-2.578c0.43-2.558-0.326-3.433-2.818-3.005
		c-3.625,0.622-6.285,2.948-8.973,5.168c-1.477,1.219-2.674,2.783-4.315,3.812c-1.273,0.796-2.503,0.946-3.873-0.163
		c-2.181-1.768-4.375-3.538-6.816-4.971c-2.723-1.593-5.772-1.92-8.789-2.329c-4.432-0.599-8.776,3.675-8.947,8.765
		c-0.078,2.36-0.964,4.536-1.113,6.852c-0.078,1.221-0.8,1.603-1.907,1.989c-1.596,0.562-3.163,0.313-4.734,0.336
		c-1.332,0.021-1.297-1.357-1.435-2.12c-0.338-1.895-0.479-3.848-0.458-5.772c0.025-2.112-0.664-4.1-0.761-6.208
		c-0.135-2.921,1.358-5.048,2.939-7.011c1.652-2.055,3.062-3.823,1.454-6.499c-0.231-0.387-0.104-0.988-0.156-1.658
		c-2.188-0.246-3.791,0.93-5.431,1.902c-1.934,1.146-3.953,2.234-5.139,4.275c-1.065,1.833-0.16,3.76,0.086,5.548
		c0.364,2.644,0.638,5.303,0.684,7.938c0.047,2.73,0.393,5.424,0.562,8.135c0.104,1.658,1.156,3.125,2.334,4.25
		c1.716,1.644,2.205,3.613,2.098,5.817c-0.168,3.356-0.43,6.71-0.626,10.065c-0.108,1.841,0.476,3.097,2.556,3.475
		c1.312,0.236,1.788,0.126,2.217-1.314c0.92-3.089,0.746-6.152,0.289-9.217c-0.118-0.785,0.107-1.08,0.597-1.613
		c1.699,1.812,2.17,4.252,3.318,6.319c1.334,2.401,2.65,4.814,3.843,7.288c0.818,1.693,2.242,2.161,3.881,2.33
		c0.777,0.079,1.568,0.012,2.328,0.012c0.742-2.336-0.382-4.727,0.242-7.471c9.104,3.961,16.907,2.759,22.805-5.854
		c1.647,0.661,2.129,2.622,3.67,3.599c0.766,0.484,1.306,0.477,2.006,0.517"/>
	
		<path clip-path="url(#SVGID_2_)" fill="none" stroke="#808184" stroke-linecap="round" stroke-linejoin="round" stroke-miterlimit="10" d="
		M235.571,260.817c-0.945,0.34-0.714,1.161-0.667,1.822c0.186,2.583,0.378,5.17,0.694,7.74c0.144,1.166,0.734,2.169,2.101,2.53
		c3.164-1.591,3.706-5.003,5.102-7.793c0.39-0.783-0.14-1.684-1.295-2.056c-1.942-0.625-3.808-1.481-5.707-2.242 M222.357,173.142
		c-1.777,0.804-3.24,2.058-5.46,2.181c-2.129,0.118-3.794,1.944-4.093,4.198c-0.252,1.898,0.189,3.686,2.053,4.513
		c2.312,1.023,4.729,0.775,6.797-0.672c2.692-1.885,3.128-7.59,0.931-10.219 M260.858,229.619c-3.734-2.467-3.338,1.734-4.608,3.029
		c-1.559-0.053-1.73-1.248-2.267-2.188c-2.222,0.472-3.003,2.909-4.972,3.713 M259.718,176.559c3.815,0.642,4.84,2.075,4.317,6.147
		c-0.147,1.149,0.988,2.546-0.667,3.424c-1.229,0.652-2.734,0.343-3.92,1.308c-0.504,0.409-1.112-0.409-1.548-0.863
		c-1.56-1.627-3.106-3.27-4.821-5.082c1.094-2.742,3.594-4.033,6.413-4.935 M237.849,138.072c0.329-0.974,0.771-1.871,1.308-2.769
		c0.585-0.977,0.705-2.338-0.426-3.111c-0.844-0.577-1.976-0.711-2.927-0.034c-2.656,1.891-3.254,4.973-4.244,7.767
		c-0.189,0.533,0.471,1.904,1.507,1.973c1.508,0.1,3.172,0.249,4.52-0.272c1.75-0.674,0.458-2.17,0.262-3.327 M232.381,264.462
		c-0.854,1.155-2.036,1.948-3.203,2.711c-1.508,0.987-1.753,2.152-0.901,3.667c0.684,1.215,1.339,2.447,1.998,3.652
		c2.889-0.509,3.339-1.087,2.53-3.644c-0.322-1.015-0.045-1.987-0.185-2.972c-0.122-0.842,0.239-1.768-0.468-2.504 M244,113.25
		c-3.668-0.642-5.487,1.966-7.229,4.372c-0.851,1.173-0.335,2.47,1.05,3.412c1.24,0.844,2.064,0.452,2.742-0.509
		c1.552-2.201,3.103-4.418,3.892-7.046 M259.946,228.936c0.229-2.071-1.106-3.846-2.961-3.865c-2.581-0.026-5.164,0.032-7.745-0.021
		c-1.694-0.036-2.154,0.806-1.817,2.29c0.454,1.993,0.717,4.04,1.588,5.922 M264.73,209.351c1.216,1.083,2.37,1.589,3.438-0.215
		c0.209-0.353,0.508-0.804,1.121-0.702c1.791,0.296,2.424-0.568,2.311-2.273c-0.018-0.287,0.386-0.64,0.653-0.902
		c1.641-1.597,1.771-2.134,0.191-3.849c-1.203-1.304-1.904-2.869-2.661-4.375c-2.047-4.071-2.889-4.349-6.25-1.526
		c1.393,3.704-0.096,6.896-2.014,9.958c-0.632,1.009-1.231,2.143-1.041,3.188c0.309,1.708,1.719,1.94,4.024,0.925 M272.933,258.768
		c-1.243-2.876-1.911-5.942-2.755-8.847c-1.236-0.195-1.814,0.515-2.495,1.094c-1.15,0.979-2.276,2.114-3.866,2.263
		c-2.053,0.192-2.248,1.709-1.747,2.956c0.931,2.305,0.748,4.584-0.183,6.583c-0.68,1.46,1.05,1.927,0.356,3.24
		c4.766-0.876,7.917-3.678,10.689-7.061 M241.038,87.517c3.256-1.062,4.225-0.073,5.663,1.846c0.688,0.918,1.456,1.426,2.518,1.584
		c2.547-1.754,2.478-1.764,1.411-4.578c-0.987-2.607-1.594-5.387-4.002-7.325c-1.334,0.467-2.047,1.593-2.929,2.722
		c-0.939,1.203-1.459,2.702-2.659,3.703c-0.724,0.603-0.528,1.323-0.229,2.048 M251.745,137.617c-3.8,2.268-6.277,5.34-6.154,10.021
		c0.05,1.885,2.2,4.409,4.104,4.782c1.869,0.367,2.429-1.261,3.123-2.321c0.638-0.976,1.192-1.904,2.082-2.728
		c1.906-1.765,2.114-3.954,0.193-5.571c-1.444-1.217-1.198-3.484-3.12-4.183 M218.712,156.062c0.127,1.084,0.584,2.075,0.76,3.175
		c0.6,3.752,2.317,5.053,6.53,5.474c0.3,0.031,0.634-0.075,0.906,0.017c1.669,0.562,2.916,0.98,3.507-1.586
		c0.897-3.905,1.025-4.728-1.469-5.907c-2.923-1.383-5.868-2.887-9.332-2.121c-0.545,0.121-0.773,0.456-1.13,0.721 M247.873,197.054
		c0.607,0.607,1.228,1.203,1.82,1.824c2.193,2.302,2.529,2.248,5.051,0.507c0.827-0.569,1.201-1.411,0.818-1.824
		c-1.592-1.718-0.705-3.459-0.118-5.042c0.841-2.263,0.384-3.93-1.151-5.749c-2.782-3.295-2.731-3.488-6.395-1.511
		c-1.673,0.902-3.552,1.357-5.091,2.62c-0.747,0.612-0.971,1.146-0.837,1.884c0.429,2.373,0.946,4.729,1.454,7.216
		c-0.3,0.381-0.791,0.72-1.45,1.036c-3.199,1.528-4.192,4.372-4.111,7.692c0.041,1.684,0.608,2.007,2.023,1.118
		c1.213-0.762,2.332-1.222,3.886-1.219c2.059,0.004,3.39-2.456,3.641-5.821c0.052-0.709-0.141-1.465,0.46-2.05 M246.961,158.795
		c1.912,0.485,3.506,1.171,4.17,3.396c0.441,1.478,1.837,2.623,3.36,2.919c2.214,0.432,2.23,1.937,1.988,3.47
		c-0.208,1.318-0.98,2.553-2.041,3.372c-0.529,0.409-1.53,1.027-2.216,0.259c-2.266-2.53-5.166-1.968-7.995-1.795
		c-1.863,0.114-2.698-0.532-2.728-2.284c-0.039-2.315-0.026-4.581-0.834-6.861c-0.505-1.426,0.886-1.975,2.194-2.012
		c1.308-0.037,2.626,0.07,3.873-0.464 M232.609,194.549c0.228-0.374,0.636-0.109,0.904-0.241c1.093-0.532,2.454-0.086,3.443-1.106
		c1.044-1.075,0.003-2.14,0.138-3.217c0.162-1.287,0.357-2.465,0.955-3.647c1.513-2.99,0.161-5.678-3.168-6.088
		c-2.031-0.25-4.123-0.051-6.143-0.516c-1.049-0.242-1.388,0.605-1.549,1.166c-0.435,1.52-1.495,2.689-2.07,4.096
		c-1.068,2.614-0.912,5.38,2.712,6.103c0.712,0.143,1.553,0.104,1.551,0.945c-0.005,2.139,1.532,2.239,2.999,2.505 M254.707,130.785
		c1.022-1.627,0.23-3.375,0.128-5.003c-0.105-1.674,0.364-2.8,1.461-3.884c1.759-1.737,1.612-2.488-0.685-3.159
		c-1.1-0.322-1.254-0.753-0.94-1.855c1.215-4.256-0.438-7.758-3.066-11.177c-1.664,1.345-1.307,3.205-1.34,4.586
		c-0.072,2.995-0.674,5.803-1.408,8.67c-0.436,1.703,0.446,3.429,1.294,4.991c1.398,2.578,1.851,5.729,4.557,7.515"/>
	
		<path clip-path="url(#SVGID_2_)" fill="none" stroke="#00ADEE" stroke-linecap="round" stroke-linejoin="round" stroke-miterlimit="10" d="
		M188.825,236.627c-1.292,0.612-0.424,1.766-0.66,2.644c-0.485,1.817-0.108,3.671-0.217,5.506c-0.039,0.64,0.085,1.075,0.863,1.356
		c1.801,0.651,3.577,1.223,5.74,0.984c0.015-2.85-0.472-5.575-0.023-8.292c0.172-1.04-0.416-1.412-1.508-1.599
		c-1.322-0.229-2.602-0.687-3.976-0.599 M200.497,209.097c-2.51,0.66-2.765,0.996-1.513,3.288c2.219,4.06,4.712,7.961,7.474,11.679
		c0.96,1.294,2.239,1.164,3.509,0.446c1.462-0.825,0.963-2.068,0.412-3.062c-1.445-2.611-2.47-5.383-3.497-8.164
		c-1.323-3.582-2.234-4.187-6.163-4.187 M218.558,228.479c-2.654,0.397-4.471,1.708-5.335,4.389
		c-0.363,1.124-1.245,2.089-1.94,3.093c-0.721,1.041-0.477,2.008,0.244,2.855c0.821,0.967,2.017,0.583,2.808,0.161
		c0.758-0.404,1.595-0.985,2.033-1.903c0.924-1.937,1.997-3.78,3.251-5.542c0.795-1.116,0.585-2.349-0.839-3.053 M208.206,252.705
		c-0.468,0.062-0.81,0.388-1.311,0.489c-3.37,0.691-3.641,1.101-3.305,4.575c0.17,1.767,0.346,3.541,0.679,5.282
		c0.259,1.353,1.033,2.515,2.186,3.292c1.417,0.956,3.779-0.083,3.68-1.743c-0.222-3.671-0.134-7.376-0.842-11.012
		c-0.082-0.421-0.089-1.072-0.867-0.883 M209.308,230.46c-0.021,1.7,0.093,3.398-0.425,5.071c-0.604,1.951-4.109,3.867-5.946,3.042
		c-0.698-0.313-1.123-0.97-0.703-1.958c0.891-2.094,1.526-4.3,2.48-6.361c1.015-2.192,1.709-2.286,3.707-0.888
		c0.334,0.235,0.593,0.58,0.887,0.873 M175.17,209.537c0.395,2.129,0.672,4.211,0.05,6.401c-0.551,1.939,0.146,2.541,2.136,3.33
		c1.837,0.728,3.841,0.964,5.547,2.124c1.168,0.793,2.351,0.185,2.572-1.291c0.16-1.065,0.295-2.473-0.247-3.246
		c-1.799-2.569-2.454-5.457-3.031-8.688c-2.324,0.596-4.923-1.102-7.027,1.149 M180.456,187.954
		c-1.295,0.386-1.006,1.624-1.045,2.425c-0.183,3.684,1.091,7.073,2.613,10.337c1.132,2.427,3.489,1.708,5.479,1.75
		c0.584,0.011,1.167-0.332,1.763-0.405c2.446-0.306,3.115-1.302,2.189-3.53c-1.085-2.608-2.409-5.116-3.61-7.667
		c-1.28-2.718-4.108-3.165-6.949-2.91 M215.695,209.979c1.464,0.278,1.93,1.5,2.41,2.647c0.851,2.038,1.64,4.102,2.431,6.164
		c0.96,2.5,0.387,4.017-1.962,5.529c-0.274,0.177-0.33,0.691-0.453,0.972c-2.911-1.461-3.44-4.043-4.56-6.1
		c-0.898-1.65-1.799-3.349-2.324-5.233c-0.684-2.449-0.405-3.269,2.038-3.744c0.717-0.14,1.493,0.118,2.199-0.235 M196.974,220.109
		c0.709-1.223-0.176-2.365-0.303-3.515c-0.199-1.796-0.839-3.572-1.484-5.285c-0.867-2.299-2.716-3.226-5.696-2.837
		c-1.24,0.162-2.801,0.026-3.385,1.983c2.479,3.398,5.282,6.66,8.848,9.265c0.629,0.46,1.329,0.08,1.8,0.608 M182.658,235.746
		c-1.686,0.06-3.106,1.094-4.841,1.181c-1.276,0.066-1.648,1.452-1.28,2.547c0.442,1.311,0.826,2.582,0.854,3.979
		c0.027,1.376,1.171,1.901,2.191,2.41c1.513,0.755,3.286,2.004,4.765,1.006c1.475-0.994,0.488-3.061,0.199-4.496
		c-0.428-2.136-0.983-4.265-1.448-6.407 M166.58,187.733c-2.789,0.41-2.846,0.591-1.781,3.311c0.617,1.574,0.921,3.276,1.587,4.826
		c1.266,2.944,4.425,4.056,7.236,2.644c0.922-0.464,1.484-0.938,0.721-2.225c-1.098-1.853-1.752-3.963-2.716-5.904
		c-0.969-1.955-2.866-2.406-4.827-2.652 M159.753,198.305c1.497-0.708,2.005-1.852,1.3-3.293c-0.562-1.15-1.32-2.202-1.953-3.319
		c-0.274-0.482-0.554-1.003-0.651-1.54c-0.486-2.635-0.464-2.64-3.102-2.64c-0.294,0-0.589,0.023-0.881-0.003
		c-3.874-0.343-5.128,1.187-3.101,4.858c0.204,0.369,0.236,0.873,0.226,1.312c-0.067,2.844,0.024,2.846,2.645,3.559
		c1.757,0.477,3.646,0.396,5.296,1.287 M168.122,214.603c0.46-1.523,0.292-3.098,0.177-4.621c-0.154-2.027-0.794-2.415-2.815-1.965
		c-1.196,0.266-2.277,0.391-3.314-0.454c-1.534-1.247-3.251-1.37-5.312-0.666c0.414,2.814,1.504,5.354,2.956,7.669
		c0.807,1.286,1.72,2.621,3.02,3.566c1.597,1.162,4.552,0.771,5.461-0.912c0.357-0.659,0.172-1.614-0.171-2.396 M189.045,251.383
		c-1.003,2.239-0.058,4.458,0.318,6.59c0.336,1.912,0.346,3.856,0.975,5.773c2.437,0.384,4.984,1.734,7.913,0.718
		c-1.044-2.818-1.235-5.627-1.025-8.455c0.087-1.173-0.492-1.754-1.356-2.195c-2.102-1.07-4.17-2.249-6.603-2.431"/>
	
		<path clip-path="url(#SVGID_2_)" fill="none" stroke="#7F3F97" stroke-linecap="round" stroke-linejoin="round" stroke-miterlimit="10" d="
		M291.897,273.785c0.047,0.686-0.52,1.072-1.386,1.195c-3.476,0.49-4.411,2.104-4.17,4.351c0.076,0.712-0.095,1.461-0.333,2.165
		c-1.136,3.354,0.325,6.275,3.146,8.912c4.193,3.921,3.769,7.188-1.371,10.637c-1.347,0.901-2.332,2.067-3.483,3.111
		 M342.314,304.88c-5.181,0-10.36,0-15.539,0c-1.212-0.003-1.794-0.523-2.453-1.19c-3.741-3.791-6.668-3.726-11.746-2.253
		c-1.83,0.533-3.928,0.92-6.191,0.61c-2.096-0.286-4.314-0.077-6.209,0.896c-2.479,1.273-5.17,1.744-8.293,1.254
		c-2.001-0.315-4.162,0.201-6.203-0.281 M290.86,275.229c0.762,1.992,0.196,4.02,0.333,6.028c0.18,2.612,1.746,3.439,5.544,3.166
		c2.426-0.173,4.723-1.06,7.228-0.673c0.128,0.4,0.318,0.757,0.352,1.123c0.612,6.413,4.129,8.824,13.478,8.627
		c6.72-0.141,12.225,1.446,16.91,4.639c2.979,2.028,6.126,3.966,8.301,6.501 M370.633,310.182c-0.989-2.079-3.374-1.972-5.872-1.947
		c-12.776,0.12-25.553,0.184-38.331,0.257c-1.415,0.006-2.822,0.102-4.159-0.462c-1.484-0.625-2.895-0.59-4.147,0.453
		c-1.578,1.312,0.063,1.913,1.063,2.66c0.443,0.327,0.992,0.59,1.623,0.962c-2.496,1.384-3.679,2.725-1.009,4.631
		c1.277,0.911,1.385,2.276-0.276,3.331c-1.4,0.889-6.005,1.403-7.237,0.708c-1.72-0.975-3.189-2.065-2.808-3.846
		c0.168-0.785,0.029-1.605,0.029-2.409c-0.006-2.639-0.312-2.907-4.145-3.119c-1.984-0.109-3.657-0.678-4.796-1.721
		c-1.893-1.734-4.674-1.964-7.296-2.099c-6.313-0.319-12.672-0.241-18.984-0.56c-15.065-0.763-30.177-0.699-45.244-0.785
		c-15.521-0.085-31.087,0.063-46.612,0.441c-7.354,0.178-14.72,1.04-22.104,0.809c-9.565-0.302-19.105-1.173-28.667-1.292
		c-4.584-0.058-9.792-1.314-13.81,1.576c-0.694,0.503-1.569,0.918-1.727,1.687 M113.707,309.457
		c7.913,0.684,15.879,0.901,23.828,0.924c14.746,0.035,29.471,0.362,44.207,0.651c9.423,0.186,18.921-0.047,28.301,0.452
		c17.153,0.917,34.346,0.156,51.453,0.988c8.052,0.393,16.197,0.353,24.176,1.365c1.829,0.234,4.002,0.336,5.17,1.654
		c0.77,0.869,1.724,1.483,0.886,2.934c-1.228,2.125-0.536,4.638,1.621,6.42c4.11,3.388,6.169,6.973,3.789,11.382
		c2.027,0.468,3.653,0.222,5.111-0.503c3.151-1.564,6.698-2.753,9.338-4.81c1.479-1.154,3.57-1.583,5.59-2.324
		c0.98,1.25,0.666,3.081,3.926,3.147c3.16-3.147,6.971-6.355,9.554-10.201c1.015-1.51,1.179-2.867,0.601-4.364
		c-1.355-3.516,0.025-4.641,5.184-4.865c5.375-0.233,10.564,1.074,15.888,0.735c4.256-0.273,8.581,0.053,12.778-0.696
		c1.774-0.313,3.284-0.952,4.49-1.925"/>
</g>
</svg>
