<?xml version="1.0" encoding="utf-8"?>
<!-- Generator: Adobe Illustrator 16.0.0, SVG Export Plug-In . SVG Version: 6.00 Build 0)  -->
<!DOCTYPE svg PUBLIC "-//W3C//DTD SVG 1.1//EN" "http://www.w3.org/Graphics/SVG/1.1/DTD/svg11.dtd">
<svg version="1.1" id="Layer_1" xmlns="http://www.w3.org/2000/svg" xmlns:xlink="http://www.w3.org/1999/xlink" x="0px" y="0px"
	 width="539.68px" height="568px" viewBox="0 0 539.68 568" enable-background="new 0 0 539.68 568" xml:space="preserve">
<g>
	<defs>
		<rect id="SVGID_1_" width="539.68" height="568"/>
	</defs>
	<clipPath id="SVGID_2_">
		<use xlink:href="#SVGID_1_"  overflow="visible"/>
	</clipPath>
	<line clip-path="url(#SVGID_2_)" fill="none" stroke="#000000" stroke-width="1.001" x1="159.229" y1="0" x2="159.229" y2="568"/>
	<line clip-path="url(#SVGID_2_)" fill="none" stroke="#000000" stroke-width="1.001" x1="245.803" y1="0" x2="245.803" y2="568"/>
	<line clip-path="url(#SVGID_2_)" fill="none" stroke="#000000" stroke-width="1.001" x1="419.166" y1="0" x2="419.166" y2="568"/>
	<line clip-path="url(#SVGID_2_)" fill="none" stroke="#000000" stroke-width="1.001" x1="334.972" y1="0" x2="334.972" y2="568"/>
	<line clip-path="url(#SVGID_2_)" fill="none" stroke="#000000" stroke-width="1.001" x1="508.334" y1="0" x2="508.334" y2="568"/>
	<line clip-path="url(#SVGID_2_)" fill="none" stroke="#000000" stroke-width="1.001" x1="72.654" y1="0" x2="72.654" y2="568"/>
	
		<line clip-path="url(#SVGID_2_)" fill="none" stroke="#000000" stroke-width="1.001" x1="0.415" y1="171.599" x2="538.961" y2="171.599"/>
	
		<line clip-path="url(#SVGID_2_)" fill="none" stroke="#000000" stroke-width="1.001" x1="0.415" y1="354.619" x2="538.961" y2="354.619"/>
	
		<line clip-path="url(#SVGID_2_)" fill="none" stroke="#000000" stroke-width="1.001" x1="0.415" y1="266.936" x2="538.961" y2="266.936"/>
	
		<line clip-path="url(#SVGID_2_)" fill="none" stroke="#000000" stroke-width="1.001" x1="0.415" y1="83.916" x2="538.961" y2="83.916"/>
	
		<line clip-path="url(#SVGID_2_)" fill="none" stroke="#000000" stroke-width="1.001" x1="0.415" y1="449.956" x2="538.961" y2="449.956"/>
	
		<line clip-path="url(#SVGID_2_)" fill="none" stroke="#000000" stroke-width="1.001" x1="0.415" y1="310.777" x2="538.961" y2="310.777"/>
	
		<line clip-path="url(#SVGID_2_)" fill="none" stroke="#000000" stroke-width="1.001" x1="0" y1="127.757" x2="538.961" y2="127.757"/>
	
		<line clip-path="url(#SVGID_2_)" fill="none" stroke="#000000" stroke-width="1.001" x1="0.72" y1="496.708" x2="539.681" y2="496.708"/>
	
		<line clip-path="url(#SVGID_2_)" fill="none" stroke="#000000" stroke-width="1.001" x1="0" y1="543.46" x2="538.961" y2="543.46"/>
	
		<line clip-path="url(#SVGID_2_)" fill="none" stroke="#000000" stroke-width="1.001" x1="0" y1="219.268" x2="538.961" y2="219.268"/>
	
		<line clip-path="url(#SVGID_2_)" fill="none" stroke="#000000" stroke-width="1.001" x1="0" y1="36.247" x2="538.961" y2="36.247"/>
	
		<line clip-path="url(#SVGID_2_)" fill="none" stroke="#000000" stroke-width="1.001" x1="0" y1="402.287" x2="538.961" y2="402.287"/>
</g>
</svg>
